<mxfile host="app.diagrams.net" modified="2023-10-20T16:25:46.394Z" agent="Mozilla/5.0 (X11; Linux x86_64; rv:109.0) Gecko/20100101 Firefox/111.0" version="22.0.6" etag="6aJnBisqA-gZbSCTLzAS" type="github">
  <diagram name="PÃ¡gina-1" id="aweo1jRxj1gEbWjKj29F">
    <mxGraphModel>
      <root>
        <mxCell id="0" />
        <mxCell id="1" parent="0" />
      </root>
    </mxGraphModel>
  </diagram>
</mxfile>
